<svg xmlns="http://www.w3.org/2000/svg" viewBox="0 0 600 480" role="img" aria-label="Product illustration representing Blood-glucose lancets; actual model may differ." class="h-full w-full" preserveAspectRatio="xMidYMid meet"><title>Product illustration for Blood-glucose lancets</title><rect width="600" height="480" rx="22" fill="#f7faf7"></rect><circle cx="300" cy="226" r="153" fill="#edf6ee"></circle><path d="M96 355h408" stroke="#d4e5d7" stroke-width="3" stroke-linecap="round"></path><g aria-hidden="true"><path d="M190 232q0-31 31-31h133q31 0 31 31v42q0 31-31 31H221q-31 0-31-31z" fill="#e7f4e9" stroke="#166534" stroke-width="8"></path><path d="M246 201v-42q0-18 19-18h70q19 0 19 18v42m-92 103v24q0 15 15 15h47q15 0 15-15v-24" fill="none" stroke="#166534" stroke-width="8" stroke-linecap="round"></path><path d="M278 224h43m-43 19h43m-43 19h29" stroke="#598268" stroke-width="6" stroke-linecap="round"></path><path d="M396 214v98m-12-82h24m-24 55h24" stroke="#14532d" stroke-width="5" stroke-linecap="round"></path></g><text x="300" y="34" text-anchor="middle" fill="#14532d" font-size="17" font-weight="700" font-family="Arial, sans-serif">Product illustration; actual model may differ.</text><text x="300" y="64" text-anchor="middle" fill="#166534" font-size="18" font-weight="700" font-family="Noto Sans Devanagari, Nirmala UI, sans-serif">सामानको चित्रण; वास्तविक मोडेल फरक हुन सक्छ।</text></svg>
