<svg xmlns="http://www.w3.org/2000/svg" viewBox="0 0 600 480" role="img" aria-label="Product illustration representing Finger exercisers; actual model may differ." class="h-full w-full" preserveAspectRatio="xMidYMid meet"><title>Product illustration for Finger exercisers</title><rect width="600" height="480" rx="22" fill="#f7faf7"></rect><circle cx="300" cy="226" r="153" fill="#edf6ee"></circle><path d="M96 355h408" stroke="#d4e5d7" stroke-width="3" stroke-linecap="round"></path><g aria-hidden="true"><path d="M197 307q-29-4-27-36l9-83q3-21 20-17 18 3 15 24l-4 37 13-105q3-21 20-18 18 3 14 23l-9 97 23-117q4-20 21-15 18 4 13 24l-17 112 28-94q6-20 23-13 16 7 9 26l-33 103q-18 56-78 49z" fill="#e7f4e9" stroke="#166534" stroke-width="8" stroke-linejoin="round"></path><path d="M222 270h130m-117 22h99" stroke="#598268" stroke-width="6" stroke-linecap="round"></path></g><text x="300" y="34" text-anchor="middle" fill="#14532d" font-size="17" font-weight="700" font-family="Arial, sans-serif">Product illustration; actual model may differ.</text><text x="300" y="64" text-anchor="middle" fill="#166534" font-size="18" font-weight="700" font-family="Noto Sans Devanagari, Nirmala UI, sans-serif">सामानको चित्रण; वास्तविक मोडेल फरक हुन सक्छ।</text></svg>
