<svg xmlns="http://www.w3.org/2000/svg" viewBox="0 0 600 480" role="img" aria-label="Product illustration representing Medical Nebulizers &amp; Suction Machines; actual model may differ." class="h-full w-full" preserveAspectRatio="xMidYMid meet"><title>Product illustration for Medical Nebulizers &amp; Suction Machines</title><rect width="600" height="480" rx="22" fill="#f7faf7"></rect><circle cx="300" cy="226" r="153" fill="#edf6ee"></circle><path d="M96 355h408" stroke="#d4e5d7" stroke-width="3" stroke-linecap="round"></path><g aria-hidden="true"><rect x="152" y="177" width="137" height="126" rx="17" fill="#e7f4e9" stroke="#166534" stroke-width="7"></rect><rect x="174" y="198" width="89" height="44" rx="7" fill="white" stroke="#598268" stroke-width="4"></rect><circle cx="264" cy="270" r="10" fill="#166534"></circle><path d="M212 177v-31q0-20 20-20h20" fill="none" stroke="#166534" stroke-width="7" stroke-linecap="round"></path><path d="M252 126h24v20h-24z" fill="white" stroke="#598268" stroke-width="4"></path><rect x="332" y="179" width="72" height="124" rx="17" fill="white" stroke="#166534" stroke-width="7"></rect><path d="M348 195h40v14h-40zM348 220h40v54h-40z" fill="#e7f4e9" stroke="#598268" stroke-width="4"></path><path d="M369 179v-30m-20 154v17m39-17v17" stroke="#14532d" stroke-width="7" stroke-linecap="round"></path></g><text x="300" y="34" text-anchor="middle" fill="#14532d" font-size="17" font-weight="700" font-family="Arial, sans-serif">Product illustration; actual model may differ.</text><text x="300" y="64" text-anchor="middle" fill="#166534" font-size="18" font-weight="700" font-family="Noto Sans Devanagari, Nirmala UI, sans-serif">सामानको चित्रण; वास्तविक मोडेल फरक हुन सक्छ।</text></svg>
