<svg xmlns="http://www.w3.org/2000/svg" viewBox="0 0 600 480" role="img" aria-label="Product illustration representing Tablet cutters; actual model may differ." class="h-full w-full" preserveAspectRatio="xMidYMid meet"><title>Product illustration for Tablet cutters</title><rect width="600" height="480" rx="22" fill="#f7faf7"></rect><circle cx="300" cy="226" r="153" fill="#edf6ee"></circle><path d="M96 355h408" stroke="#d4e5d7" stroke-width="3" stroke-linecap="round"></path><g aria-hidden="true"><path d="M195 184q0-31 31-31h148q31 0 31 31v125q0 31-31 31H226q-31 0-31-31z" fill="#e7f4e9" stroke="#166534" stroke-width="8"></path><path d="M211 218h178m-89-41v116" stroke="#166534" stroke-width="7"></path><path d="M269 249a31 31 0 0 1 62 0v14h-62z" fill="white" stroke="#598268" stroke-width="6"></path><path d="M300 218v31m-44 14 44 0 44 0" stroke="#14532d" stroke-width="5"></path></g><text x="300" y="34" text-anchor="middle" fill="#14532d" font-size="17" font-weight="700" font-family="Arial, sans-serif">Product illustration; actual model may differ.</text><text x="300" y="64" text-anchor="middle" fill="#166534" font-size="18" font-weight="700" font-family="Noto Sans Devanagari, Nirmala UI, sans-serif">सामानको चित्रण; वास्तविक मोडेल फरक हुन सक्छ।</text></svg>
