<svg xmlns="http://www.w3.org/2000/svg" viewBox="0 0 600 480" role="img" aria-label="Product illustration representing Therapy putty; actual model may differ." class="h-full w-full" preserveAspectRatio="xMidYMid meet"><title>Product illustration for Therapy putty</title><rect width="600" height="480" rx="22" fill="#f7faf7"></rect><circle cx="300" cy="226" r="153" fill="#edf6ee"></circle><path d="M96 355h408" stroke="#d4e5d7" stroke-width="3" stroke-linecap="round"></path><g aria-hidden="true"><path d="M184 249q24-73 89-33 40-83 92-19 73-23 60 50 61 49-3 88-59 50-101 4-62 38-93-18-74 5-44-72z" fill="#e7f4e9" stroke="#166534" stroke-width="8"></path><path d="M230 238q27 18 54 0m17 45q31 20 62 0m-130 33q29 18 58 0" fill="none" stroke="#598268" stroke-width="6" stroke-linecap="round"></path></g><text x="300" y="34" text-anchor="middle" fill="#14532d" font-size="17" font-weight="700" font-family="Arial, sans-serif">Product illustration; actual model may differ.</text><text x="300" y="64" text-anchor="middle" fill="#166534" font-size="18" font-weight="700" font-family="Noto Sans Devanagari, Nirmala UI, sans-serif">सामानको चित्रण; वास्तविक मोडेल फरक हुन सक्छ।</text></svg>
